<svg width="128" height="128" viewBox="0 0 128 128" fill="none" xmlns="http://www.w3.org/2000/svg">
<path fill-rule="evenodd" clip-rule="evenodd" d="M91.4286 14.8572C91.4286 10.4413 95.0092 6.85718 99.4286 6.85718C103.845 6.85718 107.429 10.4407 107.429 14.8572C107.429 16.9628 106.615 18.8781 105.285 20.3063L111.442 32.451C112.337 32.1583 113.293 32 114.286 32C119.333 32 123.429 36.0931 123.429 41.1429C123.429 46.1927 119.333 50.2858 114.286 50.2858C113.235 50.2858 112.226 50.1084 111.286 49.782L107.18 56.1638C107.148 56.214 107.114 56.2624 107.079 56.3091C111.459 59.6499 114.286 64.9236 114.286 70.8572C114.286 80.9558 106.098 89.1429 95.9991 89.1429C94.9892 89.1429 93.9985 89.061 93.0331 88.9036L87.298 104.352C89.7861 105.986 91.4286 108.802 91.4286 112C91.4286 117.048 87.3366 121.143 82.2858 121.143C77.237 121.143 73.1429 117.049 73.1429 112C73.1429 106.951 77.237 102.857 82.2858 102.857C82.515 102.857 82.7423 102.866 82.9674 102.882L88.6402 87.6017C83.7893 85.4665 80.0424 81.2851 78.4922 76.1507L67.039 79.8889C65.8389 80.2805 64.5485 79.6252 64.1568 78.4251C63.7652 77.2251 64.4205 75.9347 65.6206 75.543L77.7288 71.5912C77.7192 71.3477 77.7143 71.103 77.7143 70.8572C77.7143 67.2096 78.7823 63.8113 80.6227 60.9581L64.1039 42.7035C63.2569 41.7675 63.3291 40.322 64.2651 39.475C65.2011 38.628 66.6465 38.7002 67.4936 39.6362L83.5914 57.4257C86.8511 54.4126 91.2099 52.5715 95.9991 52.5715C98.5394 52.5715 100.959 53.0895 103.157 54.0257C103.207 53.9111 103.266 53.799 103.336 53.6906L107.48 47.248C106.027 45.6293 105.143 43.4894 105.143 41.1429C105.143 38.7455 106.066 36.5638 107.576 34.9333L101.337 22.628C100.725 22.7778 100.086 22.8572 99.4286 22.8572C95.0098 22.8572 91.4286 19.276 91.4286 14.8572ZM99.4286 11.4286C97.5351 11.4286 96 12.9648 96 14.8572C96 16.7513 97.5345 18.2857 99.4286 18.2857C101.321 18.2857 102.857 16.7507 102.857 14.8572C102.857 12.9654 101.32 11.4286 99.4286 11.4286ZM109.714 41.1429C109.714 38.6185 111.762 36.5715 114.286 36.5715C116.809 36.5715 118.857 38.6185 118.857 41.1429C118.857 43.6673 116.809 45.7143 114.286 45.7143C111.762 45.7143 109.714 43.6673 109.714 41.1429ZM82.2858 70.8572C82.2858 63.2832 88.4251 57.1429 95.9991 57.1429C103.574 57.1429 109.714 63.2835 109.714 70.8572C109.714 78.4308 103.574 84.5715 95.9991 84.5715C88.4251 84.5715 82.2858 78.4312 82.2858 70.8572ZM82.2858 107.429C79.7617 107.429 77.7143 109.476 77.7143 112C77.7143 114.524 79.7617 116.571 82.2858 116.571C84.8111 116.571 86.8572 114.524 86.8572 112C86.8572 109.476 84.8111 107.429 82.2858 107.429Z" fill="#e6e6e6"/>
<path fill-rule="evenodd" clip-rule="evenodd" d="M16 25.1429C10.952 25.1429 6.85718 29.2349 6.85718 34.2858C6.85718 39.3342 10.9516 43.4286 16 43.4286C21.0509 43.4286 25.1429 39.3338 25.1429 34.2858C25.1429 34.1845 25.1412 34.0836 25.138 33.9832L32.3898 32.9472C33.6395 32.7687 34.5078 31.6109 34.3293 30.3612C34.1508 29.1116 32.993 28.2432 31.7433 28.4217L23.8247 29.553C22.2224 26.9092 19.318 25.1429 16 25.1429ZM11.4286 34.2858C11.4286 31.7605 13.4759 29.7143 16 29.7143C18.5257 29.7143 20.5715 31.7601 20.5715 34.2858C20.5715 36.8099 18.5253 38.8572 16 38.8572C13.4763 38.8572 11.4286 36.8095 11.4286 34.2858Z" fill="#e6e6e6"/>
<path d="M48.6243 41.2298C49.8387 41.5746 50.5436 42.8385 50.1989 44.0529L45.6462 60.0892C45.3014 61.3035 44.0375 62.0085 42.8231 61.6637C41.6087 61.319 40.9037 60.055 41.2485 58.8407L45.8012 42.8044C46.146 41.59 47.4099 40.8851 48.6243 41.2298Z" fill="#e6e6e6"/>
<path fill-rule="evenodd" clip-rule="evenodd" d="M46.0022 29.7143C47.0172 33.6586 50.5974 36.5715 54.8571 36.5715C59.1169 36.5715 62.6971 33.6586 63.712 29.7143H68.5714C69.8338 29.7143 70.8571 28.691 70.8571 27.4286C70.8571 26.1663 69.8338 25.1429 68.5714 25.1429H63.712C62.6971 21.1987 59.1169 18.2858 54.8571 18.2858C50.5974 18.2858 47.0172 21.1987 46.0022 25.1429H41.1429C39.8805 25.1429 38.8571 26.1663 38.8571 27.4286C38.8571 28.691 39.8805 29.7143 41.1429 29.7143H46.0022ZM50.2857 27.4286C50.2857 24.9031 52.3325 22.8572 54.8571 22.8572C57.3818 22.8572 59.4286 24.9031 59.4286 27.4286C59.4286 29.9542 57.3818 32.0001 54.8571 32.0001C52.3325 32.0001 50.2857 29.9542 50.2857 27.4286Z" fill="#ffffff"/>
<path d="M96 68.9772C96.4187 67.8396 97.0588 66.2944 99.7027 66.2944C101.622 66.2944 102.857 68.0065 102.857 70.0381C102.857 72.6188 99.8147 75.4673 96 77.7144C92.134 75.4458 89.0933 72.6564 89.1429 70.0381C89.1799 68.0858 90.1994 66.308 92.2771 66.308C94.8716 66.308 95.5637 67.8386 96 68.9772Z" fill="#ffffff"/>
<path fill-rule="evenodd" clip-rule="evenodd" d="M29.7143 84.5715C29.7143 79.5217 33.8079 75.4286 38.8571 75.4286C43.9083 75.4286 48 79.5221 48 84.5715C48 87.0501 47.0141 89.2983 45.4127 90.9452C47.9366 92.4777 49.7916 94.9097 50.2589 97.9371C50.4515 99.1847 49.5963 100.352 48.3487 100.545C47.1011 100.737 45.9336 99.8821 45.741 98.6345C45.3425 96.0531 42.6374 93.7143 38.8571 93.7143C34.9378 93.7143 32.2879 96.1579 31.9818 98.5731C31.8232 99.8254 30.6793 100.712 29.4269 100.553C28.1746 100.395 27.288 99.2508 27.4467 97.9984C27.8316 94.9609 29.7031 92.4852 32.2889 90.9316C30.6952 89.286 29.7143 87.0434 29.7143 84.5715ZM38.8571 89.1429C41.383 89.1429 43.4285 87.0967 43.4285 84.5715C43.4285 82.0463 41.383 80.0001 38.8571 80.0001C36.3325 80.0001 34.2857 82.0466 34.2857 84.5715C34.2857 87.0963 36.3325 89.1429 38.8571 89.1429Z" fill="#ffffff"/>
<path fill-rule="evenodd" clip-rule="evenodd" d="M38.8571 66.2858C26.2331 66.2858 16 76.5191 16 89.1442C16 101.767 26.2333 112 38.8571 112C51.481 112 61.7143 101.767 61.7143 89.1442C61.7143 76.5191 51.4812 66.2858 38.8571 66.2858ZM20.5714 89.1442C20.5714 79.0436 28.758 70.8572 38.8571 70.8572C48.9562 70.8572 57.1429 79.0436 57.1429 89.1442C57.1429 99.242 48.9564 107.429 38.8571 107.429C28.7579 107.429 20.5714 99.242 20.5714 89.1442Z" fill="#ffffff"/>
</svg>
