<svg width="128" height="128" viewBox="0 0 128 128" fill="none" xmlns="http://www.w3.org/2000/svg">
<path d="M25.1428 9.14282C21.3557 9.14282 18.2857 12.2129 18.2857 16V50.2857C18.2857 54.0728 21.3557 57.1428 25.1428 57.1428H48C49.2623 57.1428 50.2857 56.1195 50.2857 54.8571C50.2857 53.5947 49.2623 52.5714 48 52.5714H25.1428C23.8805 52.5714 22.8571 51.548 22.8571 50.2857V16C22.8571 14.7376 23.8805 13.7143 25.1428 13.7143H102.857C104.119 13.7143 105.143 14.7376 105.143 16V50.3271C105.143 51.5666 104.138 52.5714 102.899 52.5714C101.636 52.5714 100.613 53.5947 100.613 54.8571C100.613 56.1195 101.636 57.1428 102.899 57.1428C106.663 57.1428 109.714 54.0913 109.714 50.3271V16C109.714 12.2129 106.644 9.14282 102.857 9.14282H25.1428Z" fill="#e6e6e6"/>
<path fill-rule="evenodd" clip-rule="evenodd" d="M11.435 80.0415C11.435 74.9921 15.5276 70.8995 20.577 70.8995C25.6257 70.8995 29.7207 74.9914 29.7207 80.0415C29.7207 82.5971 28.6727 84.9071 26.9834 86.566C27.7769 87.1046 28.4987 87.7401 29.1316 88.4551C29.9682 89.4004 29.8802 90.8449 28.9349 91.6816C27.9897 92.5183 26.5451 92.4302 25.7084 91.485C24.521 90.1434 22.8239 89.2741 20.9207 89.1789C20.8066 89.1831 20.6921 89.1852 20.577 89.1852C20.4598 89.1852 20.3432 89.183 20.2272 89.1787C16.6 89.358 13.7143 92.3557 13.7143 96.0273C13.7143 97.2897 12.6909 98.313 11.4285 98.313C10.1662 98.313 9.14282 97.2897 9.14282 96.0273C9.14282 92.089 11.1348 88.616 14.1663 86.5609C12.4803 84.9023 11.435 82.5942 11.435 80.0415ZM25.1492 80.0415C25.1492 82.4617 23.2699 84.4415 20.8917 84.6031C20.7853 84.6002 20.6785 84.5987 20.5714 84.5987C20.467 84.5987 20.3628 84.6001 20.2591 84.6029C17.8831 84.4397 16.0064 82.4613 16.0064 80.0415C16.0064 77.5169 18.0523 75.4709 20.577 75.4709C23.1024 75.4709 25.1492 77.5176 25.1492 80.0415Z" fill="#e6e6e6"/>
<path fill-rule="evenodd" clip-rule="evenodd" d="M54.8635 80.0415C54.8635 82.5943 55.909 84.9025 57.595 86.5611C57.1744 86.8462 56.7738 87.1584 56.396 87.4954C56.067 87.7888 55.7551 88.1009 55.4619 88.4302C54.6225 89.373 54.7063 90.8178 55.6492 91.6572C56.592 92.4967 58.0368 92.4128 58.8762 91.47C59.0527 91.2718 59.2405 91.0839 59.4385 90.9073C60.572 89.8965 62.0381 89.2584 63.6553 89.1786C63.7715 89.183 63.8883 89.1852 64.0056 89.1852C64.1206 89.1852 64.2352 89.1831 64.3493 89.1789C66.2616 89.2746 67.966 90.1518 69.1542 91.5045C69.9874 92.453 71.4316 92.5465 72.38 91.7134C73.3284 90.8803 73.4219 89.436 72.5888 88.4876C71.9491 87.7594 71.2174 87.1128 70.4119 86.566C72.1013 84.9071 73.1492 82.5971 73.1492 80.0415C73.1492 74.9914 69.0542 70.8995 64.0056 70.8995C58.9561 70.8995 54.8635 74.9921 54.8635 80.0415ZM64 84.5987C63.8956 84.5987 63.7915 84.6001 63.6878 84.6029C61.3117 84.4398 59.435 82.4613 59.435 80.0415C59.435 77.5169 61.4809 75.4709 64.0056 75.4709C66.531 75.4709 68.5778 77.5176 68.5778 80.0415C68.5778 82.4617 66.6985 84.4415 64.3202 84.6031C64.2138 84.6002 64.1071 84.5987 64 84.5987Z" fill="#e6e6e6"/>
<path fill-rule="evenodd" clip-rule="evenodd" d="M98.2921 80.0415C98.2921 82.5944 99.3376 84.9026 101.024 86.5612C100.231 87.0986 99.5093 87.7327 98.8765 88.4461C98.0389 89.3905 98.1254 90.8351 99.0698 91.6728C100.014 92.5104 101.459 92.4239 102.296 91.4795C103.485 90.1399 105.182 89.2726 107.084 89.1786C107.2 89.183 107.317 89.1852 107.434 89.1852C107.549 89.1852 107.664 89.1831 107.778 89.1789C111.403 89.3606 114.286 92.3573 114.286 96.0273C114.286 97.2897 115.309 98.313 116.572 98.313C117.834 98.313 118.857 97.2897 118.857 96.0273C118.857 92.0921 116.868 88.6214 113.841 86.5657C115.53 84.9068 116.578 82.5969 116.578 80.0415C116.578 74.9914 112.483 70.8995 107.434 70.8995C102.385 70.8995 98.2921 74.9921 98.2921 80.0415ZM107.429 84.5987C107.324 84.5987 107.22 84.6001 107.116 84.6029C104.74 84.4398 102.864 82.4613 102.864 80.0415C102.864 77.5169 104.909 75.4709 107.434 75.4709C109.96 75.4709 112.006 77.5176 112.006 80.0415C112.006 82.4617 110.127 84.4415 107.749 84.6031C107.643 84.6002 107.536 84.5987 107.429 84.5987Z" fill="#e6e6e6"/>
<path d="M33.664 18.9422C34.5872 19.8031 34.6377 21.2495 33.7768 22.1727L30.6591 25.516L34.0024 28.6337C34.9256 29.4947 34.9761 30.941 34.1152 31.8643C33.2543 32.7875 31.8079 32.838 30.8847 31.9771L25.8697 27.3005C24.9465 26.4396 24.8959 24.9932 25.7569 24.07L30.4334 19.055C31.2944 18.1318 32.7407 18.0813 33.664 18.9422Z" fill="#ffffff"/>
<path fill-rule="evenodd" clip-rule="evenodd" d="M75.4331 27.4344C70.3837 27.4344 66.2911 31.527 66.2911 36.5764C66.2911 39.0081 67.2397 41.2177 68.787 42.8555C65.2052 44.8419 62.6063 48.3851 61.904 52.5714H59.4287C58.1663 52.5714 57.143 53.5947 57.143 54.8571V64C57.143 65.2623 58.1663 66.2857 59.4287 66.2857H93.7144C94.9768 66.2857 96.0001 65.2623 96.0001 64V54.8571C96.0001 53.5947 94.9768 52.5714 93.7144 52.5714H88.9534C88.2514 48.3876 85.6552 44.8461 82.0768 42.8591C83.6265 41.2211 84.5768 39.01 84.5768 36.5764C84.5768 31.5263 80.4818 27.4344 75.4331 27.4344ZM75.1972 45.7171C75.2756 45.7191 75.3543 45.7201 75.4331 45.7201L75.5188 45.7197C75.5675 45.7193 75.6161 45.7184 75.6647 45.7172C79.8206 45.8225 83.2873 48.701 84.2835 52.5714H66.5739C67.5704 48.6997 71.0393 45.8205 75.1972 45.7171ZM75.6343 41.1443C78.066 41.0391 80.0054 39.035 80.0054 36.5764C80.0054 34.0525 77.9586 32.0058 75.4331 32.0058C72.9085 32.0058 70.8626 34.0517 70.8626 36.5764C70.8626 39.0349 72.7998 41.0378 75.2297 41.1442L75.2886 41.1435C75.3353 41.143 75.3819 41.1428 75.4287 41.1428C75.4973 41.1428 75.5659 41.1433 75.6343 41.1443ZM61.7144 61.7142V57.1428H91.4287V61.7142H61.7144Z" fill="#ffffff"/>
<path fill-rule="evenodd" clip-rule="evenodd" d="M41.1485 91.4709C36.0991 91.4709 32.0065 95.5636 32.0065 100.613C32.0065 103.166 33.0519 105.474 34.7378 107.132C31.7064 109.187 29.7144 112.66 29.7144 116.599C29.7144 117.861 30.7377 118.884 32.0001 118.884C33.2625 118.884 34.2858 117.861 34.2858 116.599C34.2858 112.927 37.1716 109.929 40.7987 109.75C40.9148 109.754 41.0314 109.757 41.1485 109.757C41.2635 109.757 41.378 109.755 41.492 109.75C45.117 109.932 48.0001 112.929 48.0001 116.599C48.0001 117.861 49.0235 118.884 50.2858 118.884C51.5482 118.884 52.5715 117.861 52.5715 116.599C52.5715 112.664 50.5826 109.193 47.5552 107.137C49.2444 105.478 50.2922 103.168 50.2922 100.613C50.2922 95.5628 46.1972 91.4709 41.1485 91.4709ZM41.4633 105.175C43.8415 105.013 45.7208 103.033 45.7208 100.613C45.7208 98.089 43.6739 96.0424 41.1485 96.0424C38.6239 96.0424 36.578 98.0883 36.578 100.613C36.578 103.033 38.4546 105.011 40.8306 105.174C40.9344 105.172 41.0385 105.17 41.143 105.17C41.2501 105.17 41.3569 105.172 41.4633 105.175Z" fill="#ffffff"/>
<path fill-rule="evenodd" clip-rule="evenodd" d="M77.7208 100.613C77.7208 103.166 78.7662 105.474 80.4521 107.132C77.4207 109.187 75.4287 112.66 75.4287 116.599C75.4287 117.861 76.452 118.884 77.7144 118.884C78.9768 118.884 80.0001 117.861 80.0001 116.599C80.0001 112.927 82.8858 109.929 86.513 109.75C86.629 109.754 86.7457 109.757 86.8628 109.757C86.9778 109.757 87.0923 109.755 87.2063 109.75C90.8312 109.932 93.7144 112.929 93.7144 116.599C93.7144 117.861 94.7378 118.884 96.0001 118.884C97.2625 118.884 98.2858 117.861 98.2858 116.599C98.2858 112.664 96.2969 109.193 93.2695 107.137C94.9587 105.478 96.0065 103.168 96.0065 100.613C96.0065 95.5628 91.9115 91.4709 86.8628 91.4709C81.8134 91.4709 77.7208 95.5636 77.7208 100.613ZM86.8573 105.17C86.7528 105.17 86.6487 105.172 86.545 105.174C84.169 105.011 82.2922 103.033 82.2922 100.613C82.2922 98.0883 84.3382 96.0424 86.8628 96.0424C89.3882 96.0424 91.4351 98.089 91.4351 100.613C91.4351 103.033 89.5558 105.013 87.1776 105.175C87.0712 105.172 86.9644 105.17 86.8573 105.17Z" fill="#ffffff"/>
<path d="M56.0277 18.9422C55.1044 19.8031 55.0539 21.2495 55.9149 22.1727L59.0326 25.516L55.6892 28.6337C54.766 29.4947 54.7155 30.941 55.5764 31.8643C56.4373 32.7875 57.8837 32.838 58.8069 31.9771L63.8219 27.3005C64.7452 26.4396 64.7957 24.9932 63.9347 24.07L59.2582 19.055C58.3972 18.1318 56.9509 18.0813 56.0277 18.9422Z" fill="#ffffff"/>
<path d="M44.5803 21.5574C44.9928 20.2063 45.9548 18.3281 48.3163 18.3281C51.9743 18.3281 52.5714 20.8818 52.5714 22.9108C52.5714 24.1584 52.015 25.3818 51.2018 26.5114C49.6715 28.6367 47.2316 30.4295 45.8768 31.425C45.741 31.5247 45.6161 31.6165 45.5042 31.6997C44.9072 32.1437 44.2584 32.1501 43.6366 31.6997C43.6041 31.6766 43.5707 31.6529 43.5365 31.6286C41.4874 30.1723 36.5714 26.6783 36.5714 22.9108C36.5714 20.8818 37.3655 18.3281 40.7009 18.3281C42.8685 18.3281 44.0695 20.2063 44.4841 21.5574C44.5268 21.6963 44.5382 21.6953 44.5803 21.5574Z" fill="#ffffff"/>
</svg>
