<svg width="128" height="128" viewBox="0 0 128 128" fill="none" xmlns="http://www.w3.org/2000/svg">
<path fill-rule="evenodd" clip-rule="evenodd" d="M72.6754 54.0689C75.7508 51.555 77.7143 47.7323 77.7143 43.4502C77.7143 35.8768 71.5724 29.7404 64 29.7404C56.4276 29.7404 50.2857 35.8768 50.2857 43.4502C50.2857 47.7263 52.2437 51.5443 55.3116 54.0583C52.9214 54.9199 50.7401 56.1345 48.8558 57.6453C47.871 58.4349 47.7127 59.8735 48.5023 60.8584C49.292 61.8432 50.7306 62.0015 51.7154 61.2119C54.7265 58.7976 58.8246 57.2617 63.4539 57.1495C63.635 57.1565 63.8171 57.1601 64 57.1601C64.1818 57.1601 64.3628 57.1566 64.5429 57.1496C69.1349 57.2636 73.2669 58.8177 76.2935 61.2191C77.2824 62.0037 78.7202 61.8381 79.5048 60.8492C80.2894 59.8603 80.1238 58.4226 79.1349 57.638C77.2522 56.1442 75.0668 54.9324 72.6754 54.0689ZM64 34.3118C58.9503 34.3118 54.8571 38.4036 54.8571 43.4502C54.8571 48.3328 58.6885 52.3216 63.5106 52.5758C63.6733 52.5729 63.8364 52.5714 63.9999 52.5714C64.1629 52.5714 64.3256 52.5729 64.4878 52.5759C69.3107 52.3225 73.1428 48.3333 73.1428 43.4502C73.1428 38.4036 69.0497 34.3118 64 34.3118Z" fill="#e6e6e6"/>
<path fill-rule="evenodd" clip-rule="evenodd" d="M27.4286 57.1428C19.8554 57.1428 13.7143 63.2821 13.7143 70.8571C13.7143 75.7848 16.313 80.1049 20.2142 82.5227C15.4945 85.2723 12.1952 90.0436 11.4482 95.7008C11.283 96.9523 12.1636 98.1008 13.4151 98.266C14.6666 98.4313 15.8151 97.5507 15.9803 96.2992C16.8583 89.6495 22.4747 84.5714 29.7143 84.5714C33.1641 84.5714 36.7359 86.3107 39.1919 90.3338C39.8497 91.4113 41.2564 91.7515 42.3338 91.0937C43.4113 90.436 43.7515 89.0293 43.0937 87.9519C41.2422 84.919 38.8157 82.7594 36.1234 81.4633C39.1877 78.9483 41.1428 75.1313 41.1428 70.8571C41.1428 63.2821 35.0018 57.1428 27.4286 57.1428ZM18.2857 70.8571C18.2857 65.8072 22.3797 61.7143 27.4286 61.7143C32.4774 61.7143 36.5714 65.8072 36.5714 70.8571C36.5714 75.907 32.4774 80 27.4286 80C22.3797 80 18.2857 75.907 18.2857 70.8571Z" fill="#e6e6e6"/>
<path fill-rule="evenodd" clip-rule="evenodd" d="M107.786 82.5228C111.687 80.1051 114.286 75.7849 114.286 70.8571C114.286 63.2821 108.145 57.1428 100.571 57.1428C92.9982 57.1428 86.8571 63.2821 86.8571 70.8571C86.8571 75.1313 88.8123 78.9483 91.8766 81.4633C89.1843 82.7594 86.7578 84.919 84.9063 87.9519C84.2485 89.0293 84.5887 90.436 85.6662 91.0937C86.7437 91.7515 88.1503 91.4113 88.8081 90.3338C91.2641 86.3107 94.8359 84.5714 98.2858 84.5714C105.525 84.5714 111.14 89.6491 112.02 96.2997C112.185 97.5512 113.334 98.4315 114.585 98.266C115.837 98.1004 116.717 96.9517 116.552 95.7003C115.804 90.0437 112.505 85.2725 107.786 82.5228ZM91.4286 70.8571C91.4286 65.8072 95.5226 61.7143 100.571 61.7143C105.62 61.7143 109.714 65.8072 109.714 70.8571C109.714 75.907 105.62 80 100.571 80C95.5226 80 91.4286 75.907 91.4286 70.8571Z" fill="#e6e6e6"/>
<path d="M25.1429 25.1428C25.1429 26.4042 24.1189 27.4285 22.8572 27.4285C21.5954 27.4285 20.5715 26.4042 20.5715 25.1428C20.5715 23.8798 21.5954 22.8571 22.8572 22.8571C24.1189 22.8571 25.1429 23.8798 25.1429 25.1428Z" fill="#ffffff"/>
<path d="M32 27.4285C33.2618 27.4285 34.2857 26.4042 34.2857 25.1428C34.2857 23.8798 33.2618 22.8571 32 22.8571C30.7383 22.8571 29.7143 23.8798 29.7143 25.1428C29.7143 26.4042 30.7383 27.4285 32 27.4285Z" fill="#ffffff"/>
<path fill-rule="evenodd" clip-rule="evenodd" d="M18.2857 9.14282C15.8073 9.14282 13.5398 10.5635 11.9966 12.1494C10.462 13.7266 9.14288 15.982 9.14288 18.2857V29.7142C9.14288 32.5949 9.93563 35.4632 11.8938 37.6476C13.8868 39.8708 16.8321 41.1014 20.546 41.1428H33.339L41.8124 49.6162C42.4661 50.2699 43.4492 50.4655 44.3033 50.1117C45.1574 49.7579 45.7143 48.9244 45.7143 48V18.2857C45.7143 15.982 44.3952 13.7266 42.8606 12.1494C41.3174 10.5635 39.0499 9.14282 36.5715 9.14282H18.2857ZM13.7143 18.2857C13.7143 17.6195 14.1939 16.4464 15.273 15.3374C16.3435 14.2373 17.5045 13.7143 18.2857 13.7143H36.5715C37.3527 13.7143 38.5137 14.2373 39.5842 15.3374C40.6633 16.4464 41.1429 17.6195 41.1429 18.2857V42.4818L35.902 37.2409C35.4733 36.8122 34.8919 36.5714 34.2857 36.5714H20.5848C17.8945 36.5389 16.2718 35.6828 15.2977 34.5962C14.2873 33.469 13.7143 31.8016 13.7143 29.7142V18.2857Z" fill="#ffffff"/>
<path d="M98.2857 25.1428C98.2857 26.4042 97.2618 27.4285 96 27.4285C94.7383 27.4285 93.7143 26.4042 93.7143 25.1428C93.7143 23.8798 94.7383 22.8571 96 22.8571C97.2618 22.8571 98.2857 23.8798 98.2857 25.1428Z" fill="#ffffff"/>
<path d="M105.143 27.4285C106.405 27.4285 107.429 26.4042 107.429 25.1428C107.429 23.8798 106.405 22.8571 105.143 22.8571C103.881 22.8571 102.857 23.8798 102.857 25.1428C102.857 26.4042 103.881 27.4285 105.143 27.4285Z" fill="#ffffff"/>
<path fill-rule="evenodd" clip-rule="evenodd" d="M85.1395 12.1494C86.6826 10.5635 88.9502 9.14282 91.4286 9.14282H109.714C112.193 9.14282 114.46 10.5635 116.003 12.1494C117.538 13.7266 118.857 15.982 118.857 18.2857V29.7142C118.857 32.5949 118.064 35.4632 116.106 37.6476C114.113 39.8708 111.168 41.1012 107.454 41.1427L107.429 41.143L94.6611 41.1428L86.1877 49.6162C85.534 50.2699 84.5509 50.4655 83.6967 50.1117C82.8426 49.7579 82.2857 48.9244 82.2857 48V18.2857C82.2857 15.982 83.6049 13.7266 85.1395 12.1494ZM88.4158 15.3374C87.3368 16.4464 86.8572 17.6195 86.8572 18.2857V42.4818L92.0981 37.2409C92.5267 36.8122 93.1081 36.5714 93.7143 36.5714H107.415C110.106 36.5389 111.728 35.6828 112.702 34.5962C113.713 33.469 114.286 31.8016 114.286 29.7142V18.2857C114.286 17.6195 113.806 16.4464 112.727 15.3374C111.657 14.2373 110.496 13.7143 109.714 13.7143H91.4286C90.6474 13.7143 89.4863 14.2373 88.4158 15.3374Z" fill="#ffffff"/>
<path fill-rule="evenodd" clip-rule="evenodd" d="M54.7444 100.142C50.0125 97.0905 46.8793 91.7732 46.8793 85.7244C46.8793 76.257 54.5548 68.5815 64.0222 68.5815C73.4896 68.5815 81.1651 76.257 81.1651 85.7244C81.1651 91.7803 78.0245 97.103 73.2833 100.153C80.0344 103.002 85.1484 108.869 86.7992 116.06C87.0816 117.29 86.3132 118.517 85.0828 118.799C83.8524 119.082 82.6261 118.313 82.3436 117.083C80.513 109.108 73.2577 103.06 64.4454 102.862C64.3048 102.865 64.1637 102.867 64.0222 102.867C63.8738 102.867 63.7258 102.865 63.5783 102.862C54.7518 103.049 47.4803 109.113 45.6567 117.081C45.375 118.312 44.1492 119.081 42.9186 118.8C41.6881 118.518 40.9188 117.292 41.2004 116.061C42.8469 108.867 47.9754 102.989 54.7444 100.142ZM51.4508 85.7244C51.4508 78.7817 57.0795 73.1529 64.0222 73.1529C70.9649 73.1529 76.5936 78.7817 76.5936 85.7244C76.5936 92.5317 71.1822 98.0758 64.4268 98.2894C64.2848 98.2869 64.1425 98.2857 64 98.2857C63.8672 98.2857 63.7347 98.2868 63.6024 98.2889C56.8541 98.0675 51.4508 92.5266 51.4508 85.7244Z" fill="#ffffff"/>
</svg>
