<svg width="128" height="128" viewBox="0 0 128 128" fill="none" xmlns="http://www.w3.org/2000/svg">
<path d="M43.4285 68.5714C42.1714 68.5714 41.1428 67.5429 41.1428 66.2857V43.4286C41.1428 42.1714 40.1143 41.1429 38.8571 41.1429C37.6 41.1429 36.5714 42.1714 36.5714 43.4286V68.7736C37.445 71.8437 37.4082 75.547 37.3713 77.9428V78.6057C38.6285 79.2914 40.7085 80.6171 42.9485 83.1085C43.7942 84.0457 43.7028 85.4857 42.7656 86.3314C41.8285 87.1771 40.3885 87.0857 39.5428 86.1485C37.3256 83.68 35.3828 82.6742 34.537 82.2628C34.2628 82.1257 34.057 82.0114 33.9656 81.9428C32.7999 81.1657 32.7999 80.1371 32.8228 77.8742L32.8229 77.8572C32.8426 75.8151 32.8768 72.2582 32.1528 69.8482C32.1195 69.7622 32.0912 69.6737 32.0684 69.5831C31.9678 69.2842 31.854 69.0061 31.7256 68.7542C29.097 63.6342 26.1713 62.0114 24.1142 61.5771C26.5599 67.5428 27.4742 73.6457 27.4742 77.7828C27.4742 86.3542 32.2285 98.2628 41.1656 98.3085C42.4228 98.3085 43.4513 99.3371 43.4513 100.594C43.4513 101.897 42.4228 102.903 41.1656 102.903C29.897 102.857 22.9028 89.8514 22.9028 77.8057C22.9028 73.4857 21.7599 66.6971 18.5828 60.5714C18.2856 60 18.2399 59.3142 18.4685 58.6971C18.697 58.08 19.177 57.6 19.7942 57.3714C22.3136 56.4133 27.4085 56.4193 32 61.238V43.4286C32 39.6572 35.0857 36.5714 38.8571 36.5714C39.6576 36.5714 40.4271 36.7104 41.1428 36.9655V34.2857C41.1428 30.5143 44.2285 27.4286 48 27.4286C51.7714 27.4286 54.8571 30.5143 54.8571 34.2857V34.6798C55.5728 34.4247 56.3424 34.2857 57.1428 34.2857C58.4 34.2857 59.6571 34.6286 60.7314 35.2914C61.8057 35.9543 62.1485 37.3486 61.4857 38.4457C60.8228 39.52 59.4285 39.8629 58.3314 39.2C57.9657 38.9714 57.5543 38.8572 57.1428 38.8572C55.8857 38.8572 54.8571 39.8857 54.8571 41.1429V54.9257C54.8571 56.1829 53.8285 57.2114 52.5714 57.2114C51.3143 57.2114 50.2857 56.1829 50.2857 54.9257V34.2857C50.2857 33.0286 49.2571 32 48 32C46.7428 32 45.7143 33.0286 45.7143 34.2857V66.2857C45.7143 67.5429 44.6857 68.5714 43.4285 68.5714Z" fill="#e6e6e6"/>
<path d="M42.2172 116.274C42.6058 116.526 43.0629 116.663 43.4972 116.663C44.2286 116.663 44.9372 116.297 45.3944 115.634L54.1944 102.606C55.2229 102.263 56.9601 101.531 58.6286 100.229C59.6115 99.4514 59.7944 98.0343 59.0172 97.0286C58.2401 96.0457 56.8229 95.8628 55.8172 96.64C54.1258 97.9428 52.1829 98.4686 52.1829 98.4686C51.6344 98.6057 51.1772 98.9486 50.8572 99.4057L41.6001 113.097C40.8915 114.149 41.1658 115.566 42.2172 116.274Z" fill="#e6e6e6"/>
<path d="M22.9943 112.046C22.4915 112.046 21.9886 111.886 21.5772 111.566C20.5943 110.789 20.4115 109.349 21.1886 108.366L26.6058 101.509C27.3829 100.526 28.8229 100.343 29.8058 101.12C30.7886 101.897 30.9715 103.337 30.1943 104.32L24.7772 111.177C24.3429 111.749 23.6801 112.046 22.9943 112.046Z" fill="#e6e6e6"/>
<path d="M61.7601 18.2857C61.7601 19.5428 62.7886 20.5714 64.0458 20.5714C65.3029 20.5714 66.3315 19.5428 66.3315 18.2857V11.4285C66.3315 10.1714 65.3029 9.14282 64.0458 9.14282C62.7886 9.14282 61.7601 10.1714 61.7601 11.4285V18.2857Z" fill="#ffffff"/>
<path d="M76.16 22.2857C76.5943 22.72 77.1886 22.9485 77.76 22.9485C78.3543 22.9485 78.9486 22.72 79.3829 22.2628L83.9315 17.6457C84.8229 16.7543 84.8 15.3143 83.9086 14.4228C83.0172 13.5314 81.5772 13.5314 80.6858 14.4457L76.1372 19.0628C75.2458 19.9543 75.2686 21.3943 76.16 22.2857Z" fill="#ffffff"/>
<path d="M50.3086 22.9029C49.7143 22.9029 49.12 22.6743 48.6858 22.2171L44.1372 17.6229C43.2458 16.7314 43.2686 15.2686 44.16 14.4C45.0515 13.5314 46.5143 13.5086 47.3829 14.4229L51.9315 19.0171C52.8229 19.9086 52.8 21.3714 51.9086 22.24C51.4743 22.6971 50.88 22.9029 50.3086 22.9029Z" fill="#ffffff"/>
<path d="M87.4056 115.794C87.8628 116.343 88.5028 116.617 89.1656 116.617C89.6913 116.617 90.217 116.434 90.6513 116.046C91.6113 115.223 91.7256 113.783 90.9256 112.823L79.4285 99.1086C78.9713 98.56 78.3085 98.2629 77.5999 98.2857C70.0113 98.5143 64.3428 92.96 62.3313 83.4286C60.297 73.7143 58.8113 69.6 56.9828 65.4171C58.8113 65.3257 61.4856 66.0343 63.8399 70.1943C63.8886 70.2827 63.9422 70.3664 64 70.4453V77.8514C64 79.1085 65.0286 80.1371 66.2857 80.1371C67.5429 80.1371 68.5715 79.1085 68.5715 77.8514V43.4285C68.5715 42.1714 69.6 41.1428 70.8572 41.1428C72.1143 41.1428 73.1429 42.1714 73.1429 43.4285V66.3085C73.1429 67.5657 74.1715 68.5943 75.4286 68.5943L75.44 68.5942L75.4515 68.5943C76.7086 68.5943 77.7372 67.5657 77.7372 66.3314V38.88C77.7372 38.7705 77.7294 38.6627 77.7143 38.5572V34.2857C77.7143 33.0285 78.7429 32 80 32C81.2572 32 82.2857 33.0285 82.2857 34.2857V66.2857C82.2857 67.5428 83.3143 68.5714 84.5715 68.5714C85.8286 68.5714 86.8572 67.5428 86.8572 66.2857V38.8571C86.8572 37.6 87.8857 36.5714 89.1429 36.5714C90.4 36.5714 91.4286 37.6 91.4286 38.8571V66.2857C91.4286 67.5428 92.4572 68.5714 93.7143 68.5714C94.9714 68.5714 96 67.5428 96 66.2857V52.5714C96 51.3143 97.0286 50.2857 98.2857 50.2857C99.5429 50.2857 100.571 51.3143 100.571 52.5714V81.3028C100.571 90.9714 95.2 93.92 94.9943 94.0114C94.3772 94.3314 93.9429 94.9028 93.7829 95.5657C93.6229 96.2285 93.7829 96.9371 94.2172 97.4857L103.314 108.914C103.771 109.486 104.434 109.783 105.097 109.783C105.6 109.783 106.103 109.6 106.537 109.28C107.52 108.48 107.68 107.04 106.903 106.057L99.2686 96.48C101.646 94.3314 105.074 89.8057 105.143 81.5314V52.5714C105.143 48.8 102.057 45.7143 98.2857 45.7143C97.4853 45.7143 96.7157 45.8532 96 46.1083V38.8571C96 35.0857 92.9143 32 89.1429 32C88.2517 32 87.3988 32.1723 86.6158 32.4852C85.82 29.5798 83.149 27.4285 80 27.4285C76.2286 27.4285 73.1429 30.5143 73.1429 34.2857V36.9654C72.4272 36.7104 71.6576 36.5714 70.8572 36.5714C67.0857 36.5714 64 39.6571 64 43.4285V63.2941C59.7661 59.881 55.0955 60.6997 52.7542 61.9657C51.7028 62.5371 51.3599 64.0229 51.8399 65.12L51.8445 65.1302C54.0591 70.0845 55.5215 73.3562 57.8513 84.3886C60.2056 95.6343 67.337 102.606 76.5942 102.88L87.4056 115.794Z" fill="#ffffff"/>
<path d="M13.1429 35.7485C13.4172 36.7314 14.3086 37.4171 15.3372 37.4171C16.3657 37.4171 17.28 36.7314 17.5543 35.7257C17.7917 34.8553 17.9117 34.4153 18.1907 34.1321C18.476 33.8427 18.9273 33.717 19.84 33.4628C20.8229 33.1885 21.5086 32.2743 21.5086 31.2457C21.5086 30.2171 20.8229 29.3257 19.8172 29.0514C18.9069 28.8094 18.4555 28.6894 18.1672 28.4044C17.8837 28.1241 17.7579 27.6841 17.5086 26.8114C17.2343 25.8285 16.3429 25.1428 15.3143 25.1428C14.2857 25.1428 13.3715 25.8285 13.0972 26.8114C12.8598 27.6818 12.7398 28.1218 12.4607 28.4049C12.1755 28.6944 11.7242 28.8201 10.8115 29.0743C9.8286 29.3485 9.14288 30.2628 9.14288 31.2914C9.14288 32.32 9.8286 33.2343 10.8343 33.4857C12.64 33.9885 12.64 33.9885 13.1429 35.7485Z" fill="#ffffff"/>
<path d="M111.337 37.4171C110.309 37.4171 109.417 36.7314 109.143 35.7485C108.64 33.9885 108.64 33.9885 106.834 33.4857C105.829 33.2343 105.143 32.32 105.143 31.2914C105.143 30.2628 105.829 29.3485 106.811 29.0743C107.724 28.8201 108.176 28.6944 108.461 28.4049C108.74 28.1218 108.86 27.6818 109.097 26.8114C109.371 25.8285 110.286 25.1428 111.314 25.1428C112.343 25.2343 113.234 25.8285 113.509 26.8114C114.011 28.5714 114.011 28.5714 115.817 29.0743C116.823 29.3485 117.509 30.24 117.509 31.2685C117.509 32.2971 116.823 33.2114 115.84 33.4857C114.034 33.9885 114.034 33.9885 113.554 35.7485C113.28 36.7314 112.366 37.4171 111.337 37.4171Z" fill="#ffffff"/>
<path d="M61.8742 117.189C62.1485 118.171 63.0399 118.857 64.0685 118.857C65.1199 118.834 66.0113 118.149 66.2628 117.189C66.5001 116.318 66.6201 115.878 66.8992 115.595C67.1844 115.306 67.6358 115.18 68.5485 114.926C69.5313 114.651 70.217 113.737 70.217 112.709C70.217 111.68 69.5313 110.789 68.5256 110.514C66.7199 110.011 66.7199 110.011 66.217 108.251C65.9428 107.269 65.0513 106.583 64.0228 106.583C62.9942 106.583 62.1028 107.269 61.8285 108.251C61.3485 110.011 61.3485 110.011 59.5428 110.514C58.5599 110.789 57.8742 111.703 57.8742 112.731C57.8742 113.76 58.5599 114.651 59.5656 114.926C60.4771 115.18 60.9285 115.305 61.2167 115.594C61.4995 115.877 61.6252 116.317 61.8742 117.189Z" fill="#ffffff"/>
</svg>
